<svg width="26" height="26" viewBox="0 0 26 26" fill="none" xmlns="http://www.w3.org/2000/svg">
<path d="M1.75195 25.25C1.19967 25.25 0.751953 24.8023 0.751953 24.25V9.0625C0.751953 8.51022 1.19967 8.0625 1.75195 8.0625H6.00195C6.55424 8.0625 7.00195 8.51022 7.00195 9.0625V24.25C7.00195 24.8023 6.55424 25.25 6.00195 25.25H1.75195ZM11.127 25.25C10.5747 25.25 10.127 24.8023 10.127 24.25V1.25C10.127 0.697716 10.5747 0.25 11.127 0.25H15.377C15.9292 0.25 16.377 0.697715 16.377 1.25V24.25C16.377 24.8023 15.9292 25.25 15.377 25.25H11.127ZM20.502 25.25C19.9497 25.25 19.502 24.8023 19.502 24.25V15.3125C19.502 14.7602 19.9497 14.3125 20.502 14.3125H24.752C25.3042 14.3125 25.752 14.7602 25.752 15.3125V24.25C25.752 24.8023 25.3042 25.25 24.752 25.25H20.502Z" fill="#000500"/>
</svg>
