<svg width="28" height="24" viewBox="0 0 28 24" fill="none" xmlns="http://www.w3.org/2000/svg">
<path d="M1.50195 23.25C1.14779 23.25 0.850911 23.1302 0.611328 22.8906C0.371745 22.651 0.251953 22.3542 0.251953 22C0.251953 21.6458 0.371745 21.349 0.611328 21.1094C0.850911 20.8698 1.14779 20.75 1.50195 20.75H26.502C26.8561 20.75 27.153 20.8698 27.3926 21.1094C27.6322 21.349 27.752 21.6458 27.752 22C27.752 22.3542 27.6322 22.651 27.3926 22.8906C27.153 23.1302 26.8561 23.25 26.502 23.25H1.50195ZM4.00195 19.5C3.31445 19.5 2.72591 19.2552 2.23633 18.7656C1.74674 18.276 1.50195 17.6875 1.50195 17V3.25C1.50195 2.5625 1.74674 1.97396 2.23633 1.48438C2.72591 0.994792 3.31445 0.75 4.00195 0.75H24.002C24.6895 0.75 25.278 0.994792 25.7676 1.48438C26.2572 1.97396 26.502 2.5625 26.502 3.25V17C26.502 17.6875 26.2572 18.276 25.7676 18.7656C25.278 19.2552 24.6895 19.5 24.002 19.5H4.00195Z" fill="#000500"/>
</svg>
