<svg width="26" height="32" viewBox="0 0 26 32" fill="none" xmlns="http://www.w3.org/2000/svg">
<path d="M10.9082 20.7188C10.9082 21.271 11.3559 21.7188 11.9082 21.7188H14.5957C15.148 21.7188 15.5957 21.271 15.5957 20.7187V18.8125C15.5957 18.2602 16.0434 17.8125 16.5957 17.8125H18.502C19.0542 17.8125 19.502 17.3648 19.502 16.8125V14.125C19.502 13.5727 19.0542 13.125 18.502 13.125H16.5957C16.0434 13.125 15.5957 12.6773 15.5957 12.125V10.2187C15.5957 9.66647 15.148 9.21875 14.5957 9.21875H11.9082C11.3559 9.21875 10.9082 9.66647 10.9082 10.2188V12.125C10.9082 12.6773 10.4605 13.125 9.9082 13.125H8.00195C7.44967 13.125 7.00195 13.5727 7.00195 14.125V16.8125C7.00195 17.3648 7.44967 17.8125 8.00195 17.8125H9.9082C10.4605 17.8125 10.9082 18.2602 10.9082 18.8125V20.7188ZM13.4958 31.8116C13.3362 31.8544 13.1677 31.8544 13.0081 31.8116C9.49774 30.8693 6.59074 28.8136 4.28711 25.6445C1.93034 22.4023 0.751953 18.8021 0.751953 14.8438V6.0055C0.751953 5.58866 1.01053 5.21554 1.40083 5.06917L12.9008 0.756671C13.1272 0.671777 13.3767 0.671777 13.6031 0.756671L25.1031 5.06917C25.4934 5.21554 25.752 5.58866 25.752 6.0055V14.8438C25.752 18.8021 24.5736 22.4023 22.2168 25.6445C19.9132 28.8136 17.0062 30.8693 13.4958 31.8116Z" fill="#000500"/>
</svg>
