<svg width="23" height="26" viewBox="0 0 23 26" fill="none" xmlns="http://www.w3.org/2000/svg">
<path d="M12.002 25.5L11.6895 21.75H11.377C8.41862 21.75 5.9082 20.7188 3.8457 18.6563C1.7832 16.5938 0.751953 14.0833 0.751953 11.125C0.751953 8.16667 1.7832 5.65625 3.8457 3.59375C5.9082 1.53125 8.41862 0.5 11.377 0.5C12.8561 0.5 14.2363 0.776042 15.5176 1.32813C16.7988 1.88021 17.9238 2.64062 18.8926 3.60937C19.8613 4.57812 20.6217 5.70313 21.1738 6.98438C21.7259 8.26562 22.002 9.64583 22.002 11.125C22.002 12.6875 21.7467 14.1875 21.2363 15.625C20.7259 17.0625 20.028 18.3958 19.1426 19.625C18.2572 20.8542 17.2051 21.9688 15.9863 22.9688C14.7676 23.9688 13.4395 24.8125 12.002 25.5ZM11.3457 17.9688C11.6999 17.9688 12.002 17.8438 12.252 17.5938C12.502 17.3438 12.627 17.0417 12.627 16.6875C12.627 16.3333 12.502 16.0313 12.252 15.7813C12.002 15.5313 11.6999 15.4063 11.3457 15.4063C10.9915 15.4063 10.6895 15.5313 10.4395 15.7813C10.1895 16.0313 10.0645 16.3333 10.0645 16.6875C10.0645 17.0417 10.1895 17.3438 10.4395 17.5938C10.6895 17.8438 10.9915 17.9688 11.3457 17.9688ZM10.4395 14H12.3145C12.3145 13.375 12.377 12.9375 12.502 12.6875C12.627 12.4375 13.0228 11.9792 13.6895 11.3125C14.0645 10.9375 14.377 10.5313 14.627 10.0938C14.877 9.65625 15.002 9.1875 15.002 8.6875C15.002 7.625 14.6426 6.82813 13.9238 6.29688C13.2051 5.76563 12.3561 5.5 11.377 5.5C10.4603 5.5 9.68945 5.75521 9.06445 6.26563C8.43945 6.77604 8.00195 7.39583 7.75195 8.125L9.50195 8.8125C9.60612 8.45833 9.80404 8.10938 10.0957 7.76562C10.3874 7.42187 10.8145 7.25 11.377 7.25C11.9395 7.25 12.3613 7.40625 12.6426 7.71875C12.9238 8.03125 13.0645 8.375 13.0645 8.75C13.0645 9.10417 12.9603 9.42188 12.752 9.70313C12.5436 9.98438 12.2936 10.2708 12.002 10.5625C11.2728 11.1875 10.8301 11.6823 10.6738 12.0469C10.5176 12.4115 10.4395 13.0625 10.4395 14Z" fill="#000500"/>
</svg>
