<svg width="60" height="61" viewBox="0 0 60 61" fill="none" xmlns="http://www.w3.org/2000/svg">
<mask id="mask0_863_249" style="mask-type:alpha" maskUnits="userSpaceOnUse" x="0" y="0" width="60" height="61">
<rect y="0.369141" width="60" height="60" rx="2" fill="#D9D9D9"/>
</mask>
<g mask="url(#mask0_863_249)">
<path d="M37.5 50.3691C31.9167 50.3691 27.1875 48.4316 23.3125 44.5566C19.4375 40.6816 17.5 35.9525 17.5 30.3691C17.5 24.8275 19.4375 20.1087 23.3125 16.2129C27.1875 12.3171 31.9167 10.3691 37.5 10.3691C43.0417 10.3691 47.7604 12.3171 51.6562 16.2129C55.5521 20.1087 57.5 24.8275 57.5 30.3691C57.5 35.9525 55.5521 40.6816 51.6562 44.5566C47.7604 48.4316 43.0417 50.3691 37.5 50.3691ZM41.7733 38.2567C42.5535 39.0428 43.824 39.0452 44.6071 38.262L45.3358 37.5334C46.1168 36.7523 46.1168 35.486 45.3358 34.7049L40.5858 29.9549C40.2107 29.5799 40 29.0711 40 28.5407V22.3691C40 21.2646 39.1046 20.3691 38 20.3691H37C35.8954 20.3691 35 21.2646 35 22.3691V30.6077C35 31.1355 35.2086 31.6419 35.5804 32.0165L41.7733 38.2567ZM7 22.8691C5.89543 22.8691 5 21.9737 5 20.8691V19.8691C5 18.7646 5.89543 17.8691 7 17.8691H13C14.1046 17.8691 15 18.7646 15 19.8691V20.8691C15 21.9737 14.1046 22.8691 13 22.8691H7ZM4.5 32.8691C3.39543 32.8691 2.5 31.9737 2.5 30.8691V29.8691C2.5 28.7646 3.39543 27.8691 4.5 27.8691H13C14.1046 27.8691 15 28.7646 15 29.8691V30.8691C15 31.9737 14.1046 32.8691 13 32.8691H4.5ZM7 42.8691C5.89543 42.8691 5 41.9737 5 40.8691V39.8691C5 38.7646 5.89543 37.8691 7 37.8691H13C14.1046 37.8691 15 38.7646 15 39.8691V40.8691C15 41.9737 14.1046 42.8691 13 42.8691H7Z" fill="#1C1B1F"/>
</g>
</svg>
