<svg width="25" height="25" viewBox="0 0 25 25" fill="none" xmlns="http://www.w3.org/2000/svg">
<mask id="mask0_1443_3113" style="mask-type:alpha" maskUnits="userSpaceOnUse" x="0" y="0" width="25" height="25">
<rect x="0.875793" y="0.782715" width="24" height="24" fill="#D9D9D9"/>
</mask>
<g mask="url(#mask0_1443_3113)">
<path d="M12.8758 16.7827L14.2758 15.3827L12.6758 13.7827H16.8758V11.7827H12.6758L14.2758 10.1827L12.8758 8.78271L8.87579 12.7827L12.8758 16.7827ZM12.8758 22.7827C11.4925 22.7827 10.1925 22.5202 8.97579 21.9952C7.75913 21.4702 6.70079 20.7577 5.80079 19.8577C4.90079 18.9577 4.18829 17.8994 3.66329 16.6827C3.13829 15.466 2.87579 14.166 2.87579 12.7827C2.87579 11.3994 3.13829 10.0994 3.66329 8.88271C4.18829 7.66605 4.90079 6.60771 5.80079 5.70771C6.70079 4.80771 7.75913 4.09521 8.97579 3.57021C10.1925 3.04521 11.4925 2.78271 12.8758 2.78271C14.2591 2.78271 15.5591 3.04521 16.7758 3.57021C17.9925 4.09521 19.0508 4.80771 19.9508 5.70771C20.8508 6.60771 21.5633 7.66605 22.0883 8.88271C22.6133 10.0994 22.8758 11.3994 22.8758 12.7827C22.8758 14.166 22.6133 15.466 22.0883 16.6827C21.5633 17.8994 20.8508 18.9577 19.9508 19.8577C19.0508 20.7577 17.9925 21.4702 16.7758 21.9952C15.5591 22.5202 14.2591 22.7827 12.8758 22.7827Z" fill="#1C1B1F"/>
</g>
</svg>
