<svg width="38" height="38" viewBox="0 0 38 38" fill="none" xmlns="http://www.w3.org/2000/svg">
<mask id="mask0_1_934" style="mask-type:alpha" maskUnits="userSpaceOnUse" x="0" y="0" width="38" height="38">
<rect width="38" height="38" rx="2" fill="#D9D9D9"/>
</mask>
<g mask="url(#mask0_1_934)">
<path d="M5.42193 18.6C4.9875 19.0341 4.19729 18.9976 3.98207 18.4224C3.84296 18.0506 3.72249 17.6765 3.62067 17.3C3.3983 16.4778 3.28711 15.6444 3.28711 14.8C3.28711 12.3111 4.13214 10.2222 5.8222 8.53333C7.51227 6.84444 9.60261 6 12.0932 6C13.4942 6 14.8285 6.29444 16.096 6.88333C16.6071 7.12078 17.0857 7.39526 17.5317 7.70678C18.558 8.42359 20.0385 8.42359 21.0648 7.70678C21.5108 7.39526 21.9894 7.12078 22.5005 6.88333C23.768 6.29444 25.1023 6 26.5032 6C28.9938 6 31.0842 6.84444 32.7743 8.53333C34.4643 10.2222 35.3093 12.3111 35.3093 14.8C35.3093 15.6444 35.1982 16.4778 34.9758 17.3C34.874 17.6765 34.7535 18.0506 34.6144 18.4224C34.3992 18.9976 33.609 19.0341 33.1745 18.6C32.6107 18.0366 32.2506 17.2197 32.4398 16.4453C32.4516 16.3968 32.4631 16.3483 32.474 16.3C32.5852 15.8111 32.6408 15.3111 32.6408 14.8C32.6408 13.0667 32.0515 11.6111 30.8729 10.4333C29.6943 9.25556 28.2378 8.66667 26.5032 8.66667C24.702 8.66667 23.3177 9.16111 22.3503 10.15C21.8596 10.6517 21.356 11.1833 20.8396 11.745C20.0147 12.6422 18.5897 12.6352 17.7673 11.7357C17.2472 11.1668 16.7401 10.6327 16.2461 10.1333C15.2788 9.15556 13.8945 8.66667 12.0932 8.66667C10.3587 8.66667 8.90212 9.25556 7.72352 10.4333C6.54493 11.6111 5.95563 13.0667 5.95563 14.8C5.95563 15.3111 6.01122 15.8111 6.12241 16.3C6.1334 16.3483 6.14483 16.3968 6.1567 16.4453C6.34588 17.2197 5.98575 18.0366 5.42193 18.6ZM5.28711 31.3333C4.18254 31.3333 3.28711 30.4379 3.28711 29.3333V29.2333C3.28711 28.2556 3.7819 27.4722 4.77147 26.8833C5.76105 26.2944 7.04527 26 8.62415 26C8.91324 26 9.19121 26.0056 9.45806 26.0167C9.81858 26.0317 9.9912 26.4399 9.83071 26.7631C9.70769 27.0108 9.60571 27.2676 9.52477 27.5333C9.36911 28.0444 9.29128 28.5889 9.29128 29.1667V29.3333C9.29128 30.4379 8.39585 31.3333 7.29128 31.3333H5.28711ZM13.2927 31.3333C12.1881 31.3333 11.2927 30.4379 11.2927 29.3333V29.1667C11.2927 27.7222 12.0321 26.5556 13.5109 25.6667C14.9897 24.7778 16.9188 24.3333 19.2982 24.3333C21.6999 24.3333 23.6346 24.7778 25.1023 25.6667C26.5699 26.5556 27.3038 27.7222 27.3038 29.1667V29.3333C27.3038 30.4379 26.4084 31.3333 25.3038 31.3333H13.2927ZM31.3052 31.3333C30.2006 31.3333 29.3052 30.4379 29.3052 29.3333V29.1667C29.3052 28.5889 29.2329 28.0444 29.0884 27.5333C29.013 27.2668 28.9179 27.0093 28.8032 26.7608C28.6527 26.4348 28.8296 26.0323 29.1884 26.0167C29.4442 26.0056 29.7055 26 29.9723 26C31.5734 26 32.8632 26.2944 33.8417 26.8833C34.8201 27.4722 35.3093 28.2556 35.3093 29.2333V29.3333C35.3093 30.4379 34.4139 31.3333 33.3093 31.3333H31.3052ZM8.62415 24.6667C7.89031 24.6667 7.26209 24.4056 6.73951 23.8833C6.21692 23.3611 5.95563 22.7333 5.95563 22C5.95563 21.2444 6.21692 20.6111 6.73951 20.1C7.26209 19.5889 7.89031 19.3333 8.62415 19.3333C9.38023 19.3333 10.014 19.5889 10.5255 20.1C11.0369 20.6111 11.2927 21.2444 11.2927 22C11.2927 22.7333 11.0369 23.3611 10.5255 23.8833C10.014 24.4056 9.38023 24.6667 8.62415 24.6667ZM29.9723 24.6667C29.2385 24.6667 28.6102 24.4056 28.0877 23.8833C27.5651 23.3611 27.3038 22.7333 27.3038 22C27.3038 21.2444 27.5651 20.6111 28.0877 20.1C28.6102 19.5889 29.2385 19.3333 29.9723 19.3333C30.7284 19.3333 31.3622 19.5889 31.8736 20.1C32.3851 20.6111 32.6408 21.2444 32.6408 22C32.6408 22.7333 32.3851 23.3611 31.8736 23.8833C31.3622 24.4056 30.7284 24.6667 29.9723 24.6667ZM19.2982 23.3333C18.1863 23.3333 17.2412 22.9444 16.4629 22.1667C15.6846 21.3889 15.2954 20.4444 15.2954 19.3333C15.2954 18.2 15.6846 17.25 16.4629 16.4833C17.2412 15.7167 18.1863 15.3333 19.2982 15.3333C20.4323 15.3333 21.383 15.7167 22.1502 16.4833C22.9174 17.25 23.301 18.2 23.301 19.3333C23.301 20.4444 22.9174 21.3889 22.1502 22.1667C21.383 22.9444 20.4323 23.3333 19.2982 23.3333Z" fill="#1C1B1F"/>
</g>
</svg>
