<svg width="70" height="67" viewBox="0 0 70 67" fill="none" xmlns="http://www.w3.org/2000/svg">
<path d="M28.0428 66.408C25.7379 67.391 23.0613 66.516 21.7821 64.3615L18.8664 59.4509C18.162 58.2645 16.9987 57.4219 15.6518 57.1226L10.2213 55.9158C7.75973 55.3688 6.09071 53.0745 6.32818 50.564L6.86184 44.9224C6.99126 43.5543 6.55188 42.1932 5.64695 41.159L1.88095 36.855C0.231466 34.9699 0.231469 32.1551 1.88096 30.27L5.64695 25.966C6.55188 24.9318 6.99126 23.5707 6.86184 22.2026L6.32818 16.561C6.0907 14.0505 7.75973 11.7562 10.2213 11.2092L15.6518 10.0024C16.9987 9.70308 18.162 8.86051 18.8664 7.67414L21.7821 2.76354C23.0613 0.608968 25.7379 -0.265952 28.0428 0.717015L33.2469 2.93642C34.4999 3.4708 35.9167 3.4708 37.1698 2.93642L42.3739 0.717015C44.6788 -0.265952 47.3553 0.608965 48.6346 2.76354L51.5503 7.67414C52.2547 8.86051 53.418 9.70308 54.7649 10.0024L60.1954 11.2092C62.6569 11.7562 64.326 14.0506 64.0885 16.561L63.5548 22.2026C63.4254 23.5707 63.8648 24.9318 64.7697 25.966L68.5357 30.27C70.1852 32.1551 70.1852 34.9699 68.5357 36.855L64.7697 41.159C63.8648 42.1932 63.4254 43.5543 63.5548 44.9224L64.0885 50.564C64.326 53.0744 62.6569 55.3688 60.1954 55.9158L54.7649 57.1226C53.418 57.4219 52.2547 58.2645 51.5503 59.4509L48.6346 64.3615C47.3553 66.516 44.6788 67.391 42.3739 66.408L37.1698 64.1886C35.9167 63.6542 34.4999 63.6542 33.2469 64.1886L28.0428 66.408ZM28.2165 41.7124C30.1692 43.665 33.335 43.665 35.2876 41.7124L48.0455 28.9545C49.3247 27.6753 49.3429 25.6069 48.0863 24.3054C46.7981 22.9712 44.6662 22.9525 43.3548 24.2639L35.2463 32.3725C33.3099 34.3089 30.1761 34.3273 28.217 32.4138L26.9924 31.2177C25.7081 29.9633 23.6538 29.9754 22.3844 31.2448C21.1043 32.5248 21.1043 34.6002 22.3844 35.8802L28.2165 41.7124Z" fill="white"/>
</svg>
