<svg width="41" height="40" viewBox="0 0 41 40" fill="none" xmlns="http://www.w3.org/2000/svg">
<mask id="mask0_1_940" style="mask-type:alpha" maskUnits="userSpaceOnUse" x="0" y="0" width="41" height="40">
<rect x="0.982422" width="39.9463" height="39.5494" rx="15" fill="#D9D9D9"/>
</mask>
<g mask="url(#mask0_1_940)">
<path d="M7.3602 32.9578C4.8119 32.9578 2.74609 30.892 2.74609 28.3437C2.74609 27.4099 2.98927 26.5514 3.47562 25.7681C3.96086 24.9859 4.606 24.3888 5.41103 23.9768C7.13213 23.1254 8.881 22.4866 10.6576 22.0603C12.4342 21.6352 14.2386 21.4226 16.0708 21.4226C17.9029 21.4226 19.7073 21.6352 21.4839 22.0603C23.2606 22.4866 25.0094 23.1254 26.7305 23.9768C27.5356 24.3888 28.1807 24.9859 28.6659 25.7681C29.1523 26.5514 29.3955 27.4099 29.3955 28.3437C29.3955 30.892 27.3297 32.9578 24.7814 32.9578H7.3602ZM36.0578 32.9578C34.218 32.9578 32.7266 31.4664 32.7266 29.6267V28.0142C32.7266 26.8057 32.3869 25.645 31.7073 24.5322C31.1861 23.6808 31.8587 22.2107 32.8099 22.5135C34.0591 22.9123 35.225 23.4001 36.3076 23.9768C37.307 24.5261 38.0704 25.1369 38.5978 25.8093C39.1253 26.4827 39.389 27.2177 39.389 28.0142V29.6267C39.389 31.4664 37.8976 32.9578 36.0578 32.9578ZM16.0708 19.7747C14.2386 19.7747 12.6702 19.1293 11.3655 17.8384C10.0608 16.5476 9.40844 14.9958 9.40844 13.1831C9.40844 11.3704 10.0608 9.81868 11.3655 8.52783C12.6702 7.23698 14.2386 6.59155 16.0708 6.59155C17.9029 6.59155 19.4713 7.23698 20.7761 8.52783C22.0808 9.81868 22.7331 11.3704 22.7331 13.1831C22.7331 14.9958 22.0808 16.5476 20.7761 17.8384C19.4713 19.1293 17.9029 19.7747 16.0708 19.7747ZM32.7266 13.1831C32.7266 14.9958 32.0743 16.5476 30.7696 17.8384C29.4649 19.1293 27.8964 19.7747 26.0643 19.7747C25.7589 19.7747 25.3703 19.7406 24.8984 19.6725C24.3521 19.5924 24.1428 18.9571 24.4486 18.4975C24.8599 17.8794 25.1969 17.2203 25.4597 16.5201C25.8628 15.449 26.0643 14.3367 26.0643 13.1831C26.0643 12.0296 25.8628 10.9173 25.4597 9.84614C25.1982 9.14929 24.8631 8.49313 24.4545 7.87765C24.1347 7.39598 24.3235 6.71428 24.8984 6.65253C25.287 6.61188 25.6757 6.59155 26.0643 6.59155C27.8964 6.59155 29.4649 7.23698 30.7696 8.52783C32.0743 9.81868 32.7266 11.3704 32.7266 13.1831ZM6.07726 28.3437C6.07726 29.0718 6.66749 29.6621 7.39558 29.6621H24.746C25.4741 29.6621 26.0643 29.0718 26.0643 28.3437C26.0643 28.0416 25.9882 27.767 25.8361 27.5198C25.6829 27.2726 25.4813 27.0804 25.2315 26.943C23.7325 26.2015 22.2196 25.645 20.6928 25.2737C19.166 24.9035 17.6253 24.7184 16.0708 24.7184C14.5162 24.7184 12.9756 24.9035 11.4488 25.2737C9.92199 25.645 8.40908 26.2015 6.91006 26.943C6.66022 27.0804 6.45924 27.2726 6.30712 27.5198C6.15388 27.767 6.07726 28.0416 6.07726 28.3437ZM16.0708 16.4789C16.9868 16.4789 17.7713 16.1559 18.4242 15.51C19.076 14.8651 19.4019 14.0895 19.4019 13.1831C19.4019 12.2768 19.076 11.5012 18.4242 10.8563C17.7713 10.2103 16.9868 9.88734 16.0708 9.88734C15.1547 9.88734 14.3708 10.2103 13.719 10.8563C13.0661 11.5012 12.7396 12.2768 12.7396 13.1831C12.7396 14.0895 13.0661 14.8651 13.719 15.51C14.3708 16.1559 15.1547 16.4789 16.0708 16.4789Z" fill="#000500"/>
</g>
</svg>
