<svg width="58" height="58" viewBox="0 0 58 58" fill="none" xmlns="http://www.w3.org/2000/svg">
<mask id="mask0_863_240" style="mask-type:alpha" maskUnits="userSpaceOnUse" x="0" y="0" width="58" height="58">
<rect y="0.369141" width="57.5" height="57.5" rx="2" fill="#D9D9D9"/>
</mask>
<g mask="url(#mask0_863_240)">
<path d="M23.9577 31.9109C23.9577 33.0155 24.8531 33.9109 25.9577 33.9109H31.541C32.6456 33.9109 33.541 33.0155 33.541 31.9109V31.1192C33.541 30.0147 32.6456 29.1192 31.541 29.1192H25.9577C24.8531 29.1192 23.9577 30.0147 23.9577 31.1192V31.9109ZM23.9577 24.7234C23.9577 25.828 24.8531 26.7234 25.9577 26.7234H41.1244C42.2289 26.7234 43.1244 25.828 43.1244 24.7234V23.9317C43.1244 22.8272 42.2289 21.9317 41.1244 21.9317H25.9577C24.8531 21.9317 23.9577 22.8272 23.9577 23.9317V24.7234ZM23.9577 17.5359C23.9577 18.6405 24.8531 19.5359 25.9577 19.5359H41.1244C42.2289 19.5359 43.1244 18.6405 43.1244 17.5359V16.7442C43.1244 15.6397 42.2289 14.7442 41.1244 14.7442H25.9577C24.8531 14.7442 23.9577 15.6397 23.9577 16.7442V17.5359ZM19.166 43.4942C17.8483 43.4942 16.7203 43.025 15.7819 42.0867C14.8435 41.1483 14.3743 40.0203 14.3743 38.7026V9.95256C14.3743 8.63485 14.8435 7.50681 15.7819 6.56844C16.7203 5.63007 17.8483 5.16089 19.166 5.16089H47.916C49.2337 5.16089 50.3618 5.63007 51.3001 6.56844C52.2385 7.50681 52.7077 8.63485 52.7077 9.95256V38.7026C52.7077 40.0203 52.2385 41.1483 51.3001 42.0867C50.3618 43.025 49.2337 43.4942 47.916 43.4942H19.166ZM9.58268 53.0776C8.26497 53.0776 7.13694 52.6084 6.19857 51.67C5.2602 50.7316 4.79102 49.6036 4.79102 48.2859V16.7442C4.79102 15.6397 5.68645 14.7442 6.79102 14.7442H7.58268C8.68725 14.7442 9.58268 15.6397 9.58268 16.7442V46.2859C9.58268 47.3905 10.4781 48.2859 11.5827 48.2859H41.1243C42.2289 48.2859 43.1244 49.1813 43.1244 50.2859V51.0776C43.1244 52.1821 42.2289 53.0776 41.1244 53.0776H9.58268Z" fill="#1C1B1F"/>
</g>
</svg>
