<svg width="41" height="41" viewBox="0 0 41 41" fill="none" xmlns="http://www.w3.org/2000/svg">
<mask id="mask0_1_946" style="mask-type:alpha" maskUnits="userSpaceOnUse" x="0" y="0" width="41" height="41">
<rect x="0.982422" y="0.943848" width="39.9463" height="39.5494" rx="15" fill="#D9D9D9"/>
</mask>
<g mask="url(#mask0_1_946)">
<path d="M21.0675 28.9581C18.7635 28.9581 16.7995 28.1547 15.1755 26.548C13.5516 24.9414 12.7396 22.9982 12.7396 20.7186C12.7396 18.439 13.5516 16.4959 15.1755 14.8892C16.7995 13.2825 18.7635 12.4792 21.0675 12.4792C23.3716 12.4792 25.3356 13.2825 26.9595 14.8892C28.5835 16.4959 29.3955 18.439 29.3955 20.7186C29.3955 22.9982 28.5835 24.9414 26.9595 26.548C25.3356 28.1547 23.3716 28.9581 21.0675 28.9581ZM4.41168 22.3665C3.93976 22.3665 3.54419 22.2086 3.22495 21.8927C2.90571 21.5769 2.74609 21.1855 2.74609 20.7186C2.74609 20.2517 2.90571 19.8603 3.22495 19.5445C3.54419 19.2287 3.93976 19.0707 4.41168 19.0707H7.74285C8.21477 19.0707 8.61034 19.2287 8.92958 19.5445C9.24882 19.8603 9.40843 20.2517 9.40843 20.7186C9.40843 21.1855 9.24882 21.5769 8.92958 21.8927C8.61034 22.2086 8.21477 22.3665 7.74285 22.3665H4.41168ZM34.3922 22.3665C33.9203 22.3665 33.5247 22.2086 33.2055 21.8927C32.8862 21.5769 32.7266 21.1855 32.7266 20.7186C32.7266 20.2517 32.8862 19.8603 33.2055 19.5445C33.5247 19.2287 33.9203 19.0707 34.3922 19.0707H37.7234C38.1953 19.0707 38.5909 19.2287 38.9101 19.5445C39.2294 19.8603 39.389 20.2517 39.389 20.7186C39.389 21.1855 39.2294 21.5769 38.9101 21.8927C38.5909 22.2086 38.1953 22.3665 37.7234 22.3665H34.3922ZM21.0675 9.18337C20.5956 9.18337 20.2 9.02545 19.8808 8.7096C19.5616 8.39375 19.4019 8.00238 19.4019 7.53548V4.23969C19.4019 3.77279 19.5616 3.38141 19.8808 3.06557C20.2 2.74972 20.5956 2.5918 21.0675 2.5918C21.5394 2.5918 21.935 2.74972 22.2543 3.06557C22.5735 3.38141 22.7331 3.77279 22.7331 4.23969V7.53548C22.7331 8.00238 22.5735 8.39375 22.2543 8.7096C21.935 9.02545 21.5394 9.18337 21.0675 9.18337ZM21.0675 38.8455C20.5956 38.8455 20.2 38.6875 19.8808 38.3717C19.5616 38.0558 19.4019 37.6645 19.4019 37.1976V33.9018C19.4019 33.4349 19.5616 33.0435 19.8808 32.7276C20.2 32.4118 20.5956 32.2539 21.0675 32.2539C21.5394 32.2539 21.935 32.4118 22.2543 32.7276C22.5735 33.0435 22.7331 33.4349 22.7331 33.9018V37.1976C22.7331 37.6645 22.5735 38.0558 22.2543 38.3717C21.935 38.6875 21.5394 38.8455 21.0675 38.8455ZM10.4911 12.5616L8.70056 10.8313C8.36744 10.5292 8.20783 10.1446 8.22171 9.67774C8.23559 9.21084 8.3952 8.81259 8.70056 8.48302C9.03368 8.15344 9.43619 7.98865 9.90811 7.98865C10.38 7.98865 10.7687 8.15344 11.074 8.48302L12.8229 10.2545C13.1282 10.5841 13.2809 10.9686 13.2809 11.408C13.2809 11.8475 13.1282 12.232 12.8229 12.5616C12.5175 12.8911 12.1358 13.0491 11.6778 13.0353C11.2198 13.0216 10.8242 12.8637 10.4911 12.5616ZM31.061 32.9542L29.3122 31.1827C29.0068 30.8532 28.8541 30.4618 28.8541 30.0086C28.8541 29.5555 29.0068 29.1778 29.3122 28.8757C29.6175 28.5461 29.9992 28.3882 30.4573 28.4019C30.9153 28.4157 31.3109 28.5736 31.644 28.8757L33.4345 30.606C33.7676 30.9081 33.9272 31.2926 33.9134 31.7595C33.8995 32.2264 33.7399 32.6247 33.4345 32.9542C33.1014 33.2838 32.6989 33.4486 32.227 33.4486C31.755 33.4486 31.3664 33.2838 31.061 32.9542ZM29.3122 12.5616C28.9791 12.2594 28.8194 11.8818 28.8333 11.4286C28.8472 10.9755 29.0068 10.5841 29.3122 10.2545L31.061 8.48302C31.3664 8.15344 31.755 7.99551 32.227 8.00925C32.6989 8.02298 33.1014 8.1809 33.4345 8.48302C33.7676 8.81259 33.9342 9.21084 33.9342 9.67774C33.9342 10.1446 33.7676 10.5292 33.4345 10.8313L31.644 12.5616C31.3109 12.8637 30.9222 13.0147 30.4781 13.0147C30.0339 13.0147 29.6453 12.8637 29.3122 12.5616ZM8.70056 32.9542C8.36744 32.6247 8.20089 32.2264 8.20089 31.7595C8.20089 31.2926 8.36744 30.9081 8.70056 30.606L10.4911 28.8757C10.8242 28.5736 11.2198 28.4225 11.6778 28.4225C12.1358 28.4225 12.5175 28.5736 12.8229 28.8757C13.156 29.1778 13.3156 29.5555 13.3017 30.0086C13.2879 30.4618 13.1282 30.8532 12.8229 31.1827L11.074 32.9542C10.7687 33.2838 10.38 33.4417 9.90811 33.428C9.43619 33.4143 9.03368 33.2563 8.70056 32.9542Z" fill="#1C1B1F"/>
</g>
</svg>
