<svg width="60" height="61" viewBox="0 0 60 61" fill="none" xmlns="http://www.w3.org/2000/svg">
<mask id="mask0_863_258" style="mask-type:alpha" maskUnits="userSpaceOnUse" x="0" y="0" width="60" height="61">
<rect y="0.369141" width="60" height="60" rx="2" fill="#D9D9D9"/>
</mask>
<g mask="url(#mask0_863_258)">
<path d="M30.9102 56.8628C30.0982 57.5445 28.9018 57.5445 28.0895 56.8631C25.4358 54.6372 22.4685 52.8892 19.1875 51.6191C15.9243 50.356 12.5281 49.6247 8.99898 49.4252C7.89617 49.3629 7 48.4737 7 47.3691V23.8691C7 22.7646 7.89622 21.8627 8.99892 21.9271C12.4921 22.1308 15.8674 22.8719 19.125 24.1504C22.4134 25.441 25.4018 27.2193 28.0901 29.4851C28.9013 30.1688 30.0987 30.1688 30.9099 29.4851C33.5982 27.2193 36.5866 25.441 39.875 24.1504C43.1326 22.8719 46.5079 22.1308 50.0011 21.9271C51.1038 21.8627 52 22.7646 52 23.8691V47.3691C52 48.4737 51.1039 49.3629 50.001 49.4243C46.4388 49.6223 43.0322 50.3539 39.7812 51.6191C36.5181 52.8891 33.5611 54.637 30.9102 56.8628ZM29.5 24.3691C26.75 24.3691 24.3958 23.39 22.4375 21.4316C20.4792 19.4733 19.5 17.1191 19.5 14.3691C19.5 11.6191 20.4792 9.26497 22.4375 7.30664C24.3958 5.34831 26.75 4.36914 29.5 4.36914C32.25 4.36914 34.6042 5.34831 36.5625 7.30664C38.5208 9.26497 39.5 11.6191 39.5 14.3691C39.5 17.1191 38.5208 19.4733 36.5625 21.4316C34.6042 23.39 32.25 24.3691 29.5 24.3691Z" fill="#1C1B1F"/>
</g>
</svg>
