<svg width="41" height="41" viewBox="0 0 41 41" fill="none" xmlns="http://www.w3.org/2000/svg">
<mask id="mask0_1_928" style="mask-type:alpha" maskUnits="userSpaceOnUse" x="0" y="0" width="41" height="41">
<rect x="0.982422" y="0.943848" width="39.9463" height="39.5494" rx="15" fill="#D9D9D9"/>
</mask>
<g mask="url(#mask0_1_928)">
<path d="M12.5929 33.9017C11.7601 33.9017 11.0522 33.6133 10.4693 33.0366C9.88632 32.4598 9.59484 31.7594 9.59484 30.9355C9.59484 30.3587 9.7614 29.8163 10.0945 29.3082C10.4276 28.8001 10.8718 28.4362 11.427 28.2165L17.2237 25.9371C17.6454 25.7713 17.9228 25.3642 17.9228 24.911C17.9228 23.8903 16.5959 23.3676 15.7994 24.006C14.8413 24.7741 13.8071 25.4154 12.697 25.93C11.1927 26.6273 9.59667 27.0604 7.90897 27.2292C7.00338 27.3198 6.26367 26.5723 6.26367 25.6622C6.26367 24.7521 7.00467 24.0277 7.90733 23.9116C9.15901 23.7506 10.3253 23.4003 11.4062 22.8608C12.9468 22.0918 14.3418 20.9932 15.5909 19.565L17.8395 16.9284C18.1726 16.5439 18.5612 16.2555 19.0054 16.0632C19.4496 15.871 19.9215 15.7749 20.4211 15.7749H22.0867C22.5864 15.7749 23.0583 15.871 23.5025 16.0632C23.9466 16.2555 24.3353 16.5439 24.6684 16.9284L26.9169 19.565C28.1661 20.9932 29.561 22.0918 31.1017 22.8608C32.1826 23.4003 33.3489 23.7506 34.6005 23.9116C35.5032 24.0277 36.2442 24.7521 36.2442 25.6622C36.2442 26.5723 35.5045 27.3198 34.5989 27.2292C32.9112 27.0604 31.3152 26.6273 29.8109 25.93C28.7008 25.4154 27.6666 24.7741 26.7085 24.006C25.912 23.3676 24.5851 23.8903 24.5851 24.911C24.5851 25.3642 24.8624 25.7713 25.2842 25.9371L31.0809 28.2165C31.6361 28.4362 32.0802 28.8001 32.4134 29.3082C32.7465 29.8163 32.913 30.3587 32.913 30.9355C32.913 31.7594 32.6216 32.4598 32.0386 33.0366C31.4556 33.6133 30.7478 33.9017 29.915 33.9017H18.7467C18.2917 33.9017 17.9228 33.5328 17.9228 33.0777C17.9228 32.3637 18.1587 31.7732 18.6306 31.3063C19.1026 30.8394 19.6994 30.6059 20.4211 30.6059H25.4179C25.6677 30.6059 25.869 30.5304 26.0217 30.3793C26.1744 30.2283 26.2507 30.0291 26.2507 29.782C26.2507 29.5348 26.1744 29.3357 26.0217 29.1846C25.869 29.0335 25.6677 28.958 25.4179 28.958H20.4211C19.2552 28.958 18.2698 29.3563 17.4647 30.1527C16.6597 30.9492 16.2572 31.9242 16.2572 33.0777C16.2572 33.5328 15.8883 33.9017 15.4332 33.9017H12.5929ZM21.2539 14.127C20.3379 14.127 19.5537 13.8043 18.9013 13.1588C18.2489 12.5134 17.9228 11.7375 17.9228 10.8312C17.9228 9.92485 18.2489 9.14896 18.9013 8.50354C19.5537 7.85811 20.3379 7.5354 21.2539 7.5354C22.17 7.5354 22.9542 7.85811 23.6066 8.50354C24.2589 9.14896 24.5851 9.92485 24.5851 10.8312C24.5851 11.7375 24.2589 12.5134 23.6066 13.1588C22.9542 13.8043 22.17 14.127 21.2539 14.127Z" fill="#1C1B1F"/>
</g>
</svg>
