<svg width="24" height="24" viewBox="0 0 24 24" fill="none" xmlns="http://www.w3.org/2000/svg">
<mask id="mask0_652_205" style="mask-type:alpha" maskUnits="userSpaceOnUse" x="0" y="0" width="24" height="24">
<rect width="24" height="24" rx="2" fill="#D9D9D9"/>
</mask>
<g mask="url(#mask0_652_205)">
<path d="M11.7307 21C10.6262 21 9.73073 20.1046 9.73073 19V17.8453C9.73073 16.803 8.92949 15.9408 7.89491 15.8143C7.49044 15.7649 7.08934 15.7101 6.69162 15.65C6.02339 15.549 5.35713 15.4178 4.69283 15.2565C4.15083 15.1248 3.83384 14.5712 3.96921 14.0301V14.0301C4.11048 13.4654 4.68887 13.1302 5.25587 13.2619C6.3044 13.5056 7.36239 13.6806 8.42983 13.787C9.84748 13.929 11.2818 14 12.7328 14C14.1671 14 15.5931 13.929 17.0108 13.787C18.0829 13.6801 19.1503 13.504 20.2129 13.2587C20.7786 13.1281 21.3546 13.4632 21.4955 14.0264V14.0264C21.6312 14.5689 21.3119 15.1234 20.7682 15.2543C20.0935 15.4167 19.4208 15.5486 18.75 15.65C18.3579 15.7092 17.964 15.7633 17.5681 15.8121C16.5346 15.9396 15.7349 16.8016 15.7349 17.8429V19C15.7349 20.1046 14.8395 21 13.7349 21H11.7307ZM12.7328 13C12.1658 13 11.6904 12.8083 11.3068 12.425C10.9232 12.0417 10.7314 11.5667 10.7314 11C10.7314 10.45 10.9232 9.979 11.3068 9.587C11.6904 9.19567 12.1658 9 12.7328 9C13.2832 9 13.7545 9.19567 14.1468 9.587C14.5384 9.979 14.7342 10.45 14.7342 11C14.7342 11.5667 14.5384 12.0417 14.1468 12.425C13.7545 12.8083 13.2832 13 12.7328 13ZM5.2276 10C4.79397 10 4.43539 9.85833 4.15186 9.575C3.86833 9.29167 3.72656 8.93333 3.72656 8.5C3.72656 8.08333 3.86833 7.72933 4.15186 7.438C4.43539 7.146 4.79397 7 5.2276 7C5.64456 7 5.99881 7.146 6.29034 7.438C6.58255 7.72933 6.72865 8.08333 6.72865 8.5C6.72865 8.93333 6.58255 9.29167 6.29034 9.575C5.99881 9.85833 5.64456 10 5.2276 10ZM20.238 10C19.8044 10 19.4458 9.85833 19.1623 9.575C18.8787 9.29167 18.737 8.93333 18.737 8.5C18.737 8.08333 18.8787 7.72933 19.1623 7.438C19.4458 7.146 19.8044 7 20.238 7C20.655 7 21.0092 7.146 21.3008 7.438C21.593 7.72933 21.7391 8.08333 21.7391 8.5C21.7391 8.93333 21.593 9.29167 21.3008 9.575C21.0092 9.85833 20.655 10 20.238 10ZM7.97952 6.25C7.54588 6.25 7.1873 6.10833 6.90377 5.825C6.62024 5.54167 6.47847 5.18333 6.47847 4.75C6.47847 4.33333 6.62024 3.97933 6.90377 3.688C7.1873 3.396 7.54588 3.25 7.97952 3.25C8.39647 3.25 8.75072 3.396 9.04225 3.688C9.33446 3.97933 9.48056 4.33333 9.48056 4.75C9.48056 5.18333 9.33446 5.54167 9.04225 5.825C8.75072 6.10833 8.39647 6.25 7.97952 6.25ZM17.4861 6.25C17.0525 6.25 16.6939 6.10833 16.4104 5.825C16.1268 5.54167 15.9851 5.18333 15.9851 4.75C15.9851 4.33333 16.1268 3.97933 16.4104 3.688C16.6939 3.396 17.0525 3.25 17.4861 3.25C17.9031 3.25 18.2573 3.396 18.5489 3.688C18.8411 3.97933 18.9872 4.33333 18.9872 4.75C18.9872 5.18333 18.8411 5.54167 18.5489 5.825C18.2573 6.10833 17.9031 6.25 17.4861 6.25ZM12.7328 5C12.2992 5 11.9406 4.85833 11.6571 4.575C11.3735 4.29167 11.2318 3.93333 11.2318 3.5C11.2318 3.08333 11.3735 2.72933 11.6571 2.438C11.9406 2.146 12.2992 2 12.7328 2C13.1498 2 13.504 2.146 13.7956 2.438C14.0878 2.72933 14.2339 3.08333 14.2339 3.5C14.2339 3.93333 14.0878 4.29167 13.7956 4.575C13.504 4.85833 13.1498 5 12.7328 5Z" fill="white"/>
</g>
</svg>
