<svg width="24" height="24" viewBox="0 0 24 24" fill="none" xmlns="http://www.w3.org/2000/svg">
<mask id="mask0_652_208" style="mask-type:alpha" maskUnits="userSpaceOnUse" x="0" y="0" width="24" height="24">
<rect width="24" height="24" rx="2" fill="#D9D9D9"/>
</mask>
<g mask="url(#mask0_652_208)">
<path d="M7.43362 10.9873C6.65268 11.7677 5.38711 11.7677 4.60618 10.9873L3.53288 9.9147C2.75117 9.13354 2.75117 7.86646 3.53288 7.0853L4.60618 6.01274C5.38711 5.23235 6.65268 5.23235 7.43362 6.01274L8.50692 7.0853C9.28862 7.86646 9.28862 9.13354 8.50692 9.9147L7.43362 10.9873ZM11.5223 22C10.4178 22 9.52233 21.1046 9.52233 20V18.8429C9.52233 17.8016 8.72249 16.94 7.68964 16.808C7.29019 16.7569 6.89205 16.6999 6.49523 16.637C5.8254 16.5312 5.15932 16.4011 4.49696 16.2467C3.95094 16.1194 3.62708 15.5646 3.76315 15.0207V15.0207C3.90327 14.4607 4.47615 14.1274 5.03862 14.2576C6.1014 14.5035 7.16667 14.6799 8.23444 14.787C9.64341 14.929 11.0734 15 12.5244 15C13.9754 15 15.4057 14.929 16.8154 14.787C17.8826 14.6799 18.9476 14.5035 20.0102 14.2576C20.5727 14.1274 21.1456 14.4607 21.2857 15.0207V15.0207C21.4217 15.5646 21.0979 16.1194 20.5519 16.2467C19.8895 16.4011 19.2234 16.5312 18.5536 16.637C18.1568 16.6999 17.7586 16.7569 17.3592 16.808C16.3263 16.94 15.5265 17.8016 15.5265 18.8429V20C15.5265 21.1046 14.6311 22 13.5265 22H11.5223ZM12.5244 7C11.6905 7 10.9817 6.70833 10.3979 6.125C9.8142 5.54167 9.52233 4.83333 9.52233 4C9.52233 3.16667 9.8142 2.45833 10.3979 1.875C10.9817 1.29167 11.6905 1 12.5244 1C13.3583 1 14.0672 1.29167 14.6509 1.875C15.2346 2.45833 15.5265 3.16667 15.5265 4C15.5265 4.83333 15.2346 5.54167 14.6509 6.125C14.0672 6.70833 13.3583 7 12.5244 7ZM12.5244 14C11.974 14 11.503 13.804 11.1114 13.412C10.7192 13.0207 10.523 12.55 10.523 12C10.523 11.45 10.7192 10.979 11.1114 10.587C11.503 10.1957 11.974 10 12.5244 10C13.0748 10 13.5461 10.1957 13.9384 10.587C14.33 10.979 14.5258 11.45 14.5258 12C14.5258 12.55 14.33 13.0207 13.9384 13.412C13.5461 13.804 13.0748 14 12.5244 14ZM18.743 12C18.0229 12 17.3584 11.6129 17.0032 10.9865L16.4362 9.98654C16.0892 9.37462 16.0892 8.62538 16.4362 8.01346L17.0032 7.01346C17.3584 6.38708 18.0229 6 18.743 6H19.8152C20.5353 6 21.1998 6.38708 21.555 7.01346L22.122 8.01346C22.469 8.62538 22.469 9.37462 22.122 9.98654L21.555 10.9865C21.1998 11.6129 20.5353 12 19.8152 12H18.743Z" fill="white"/>
</g>
</svg>
