<svg width="19" height="16" viewBox="0 0 19 16" fill="none" xmlns="http://www.w3.org/2000/svg">
<path d="M4.32022 16C3.81987 16 3.39458 15.825 3.04433 15.475C2.69409 15.125 2.51897 14.7 2.51897 14.2C2.51897 13.85 2.61904 13.5207 2.81918 13.212C3.01932 12.904 3.28617 12.6833 3.61973 12.55L7.10256 11.1668C7.35604 11.0661 7.52244 10.821 7.52244 10.5482V10.5482C7.52244 9.93042 6.7171 9.61524 6.23639 10.0033C5.66373 10.4656 5.04602 10.8518 4.38326 11.162C3.48212 11.5841 2.52634 11.8467 1.51593 11.9499C0.966499 12.006 0.517578 11.5523 0.517578 11V11C0.517578 10.4477 0.967313 10.0083 1.5149 9.93638C2.26329 9.83811 2.9609 9.62598 3.60772 9.3C4.53303 8.83333 5.37095 8.16667 6.12147 7.3L7.47241 5.7C7.67255 5.46667 7.90604 5.29167 8.17289 5.175C8.43975 5.05833 8.72328 5 9.02348 5H10.0242C10.3244 5 10.6079 5.05833 10.8748 5.175C11.1416 5.29167 11.3751 5.46667 11.5753 5.7L12.9262 7.3C13.6767 8.16667 14.515 8.83333 15.4409 9.3C16.0873 9.62597 16.7846 9.83809 17.5328 9.93637C18.0803 10.0083 18.5301 10.4477 18.5301 11V11C18.5301 11.5523 18.0812 12.006 17.5317 11.9499C16.5215 11.8467 15.566 11.584 14.6654 11.162C14.0022 10.8518 13.3842 10.4655 12.8114 10.0032C12.3306 9.61521 11.5252 9.93042 11.5252 10.5482V10.5482C11.5252 10.821 11.6916 11.0661 11.9451 11.1668L15.4279 12.55C15.7615 12.6833 16.0283 12.904 16.2285 13.212C16.4286 13.5207 16.5287 13.85 16.5287 14.2C16.5287 14.7 16.3536 15.125 16.0033 15.475C15.6531 15.825 15.2278 16 14.7274 16H8.02244C7.7463 16 7.52244 15.7761 7.52244 15.5V15.5C7.52244 15.0667 7.66421 14.7083 7.94774 14.425C8.23127 14.1417 8.58985 14 9.02348 14H12.0256C12.1757 14 12.2968 13.9543 12.3888 13.863C12.4802 13.771 12.5259 13.65 12.5259 13.5C12.5259 13.35 12.4802 13.229 12.3888 13.137C12.2968 13.0457 12.1757 13 12.0256 13H9.02348C8.323 13 7.73092 13.2417 7.24725 13.725C6.76358 14.2083 6.52175 14.8 6.52175 15.5V15.5C6.52175 15.7761 6.29789 16 6.02175 16H4.32022ZM9.52383 4C8.97345 4 8.50246 3.804 8.11085 3.412C7.71858 3.02067 7.52244 2.55 7.52244 2C7.52244 1.45 7.71858 0.979333 8.11085 0.588C8.50246 0.196 8.97345 0 9.52383 0C10.0742 0 10.5455 0.196 10.9378 0.588C11.3294 0.979333 11.5252 1.45 11.5252 2C11.5252 2.55 11.3294 3.02067 10.9378 3.412C10.5455 3.804 10.0742 4 9.52383 4Z" fill="white"/>
</svg>
