<svg width="45" height="32" viewBox="0 0 45 32" fill="none" xmlns="http://www.w3.org/2000/svg">
<path d="M10.4549 31.4083C9.66437 32.1958 8.38553 32.1946 7.59653 31.4056C6.80648 30.6155 6.80648 29.3346 7.59653 28.5446L23.1118 13.0293C24.0913 12.0498 23.3976 10.3751 22.0125 10.3751C21.1538 10.3751 20.4577 11.0712 20.4577 11.9299V12.4167C20.4577 13.5443 19.5436 14.4584 18.416 14.4584C17.2884 14.4584 16.3743 13.5443 16.3743 12.4167V10.3751C16.3743 8.11992 18.2025 6.29175 20.4577 6.29175H28.2671C28.8115 6.29175 29.3389 6.39383 29.8493 6.598C30.3598 6.80217 30.8021 7.0914 31.1764 7.46571L37.3014 13.5397C38.2202 14.4584 39.3431 15.173 40.6702 15.6834C41.3992 15.9638 42.159 16.1723 42.9496 16.3089C44.0554 16.5 44.9577 17.3968 44.9577 18.5191C44.9577 19.6592 44.0305 20.5984 42.8972 20.4739C41.5837 20.3297 40.3565 20.0429 39.2155 19.6136C37.4971 18.9671 35.9744 17.9973 34.6473 16.7043C33.5278 15.5288 31.66 15.5061 30.5123 16.6538L30.1075 17.0586C29.0065 18.1596 29.0065 19.9447 30.1075 21.0458C31.419 22.3572 31.1287 24.5559 29.5218 25.4821L21.0933 30.3397C20.1214 30.8999 18.8794 30.5677 18.3168 29.5972C17.7519 28.6228 18.086 27.3749 19.0622 26.8131L23.6618 24.1657C24.8773 23.466 25.0973 21.8033 24.1056 20.8115C23.2744 19.9804 21.9272 19.9791 21.0944 20.8087L10.4549 31.4083ZM6.16601 18.5417C5.03843 18.5417 4.12435 17.6277 4.12435 16.5001C4.12435 15.3725 5.03843 14.4584 6.16602 14.4584H12.291C13.4186 14.4584 14.3327 15.3725 14.3327 16.5001C14.3327 17.6277 13.4186 18.5417 12.291 18.5417H6.16601ZM2.08268 12.4167C0.955099 12.4167 0.0410156 11.5027 0.0410156 10.3751C0.0410156 9.2475 0.955101 8.33342 2.08268 8.33342H8.20768C9.33527 8.33342 10.2493 9.2475 10.2493 10.3751C10.2493 11.5027 9.33526 12.4167 8.20768 12.4167H2.08268ZM37.7608 8.33342C36.6379 8.33342 35.6681 7.93359 34.8514 7.13394C34.0348 6.33428 33.6264 5.373 33.6264 4.25008C33.6264 3.12716 34.0348 2.16588 34.8514 1.36623C35.6681 0.566574 36.6379 0.166748 37.7608 0.166748C38.8837 0.166748 39.8535 0.566574 40.6702 1.36623C41.4869 2.16588 41.8952 3.12716 41.8952 4.25008C41.8952 5.373 41.4869 6.33428 40.6702 7.13394C39.8535 7.93359 38.8837 8.33342 37.7608 8.33342ZM6.16601 6.29175C5.03843 6.29175 4.12435 5.37766 4.12435 4.25008C4.12435 3.1225 5.03843 2.20841 6.16602 2.20841H12.291C13.4186 2.20841 14.3327 3.1225 14.3327 4.25008C14.3327 5.37766 13.4186 6.29175 12.291 6.29175H6.16601Z" fill="#1C1B1F"/>
</svg>
