<svg width="120" height="120" viewBox="0 0 120 120" fill="none" xmlns="http://www.w3.org/2000/svg">
<path d="M83.435 84.8062C81.4824 86.7588 78.3166 86.7588 76.364 84.8062L55.4343 63.8765C54.4966 62.9388 53.9698 61.6671 53.9698 60.341V34.8493C53.9698 32.0878 56.2084 29.8492 58.9698 29.8492H61.0302C63.7916 29.8492 66.0302 32.0878 66.0302 34.8492V55.5169C66.0302 56.843 66.5569 58.1147 67.4946 59.0524L84.8062 76.364C86.7588 78.3166 86.7588 81.4824 84.8062 83.435L83.435 84.8062ZM9.59904 81.8828C7.03573 83.3269 3.76607 82.2596 2.82813 79.471C2.3922 78.175 2.00225 76.8605 1.65829 75.5276C1.31135 74.1833 1.0112 72.8295 0.757823 71.4664C0.219487 68.5702 2.54491 66.0302 5.49067 66.0302H7.87458C10.3628 66.0302 12.4496 67.8662 12.9913 70.2947C13.1449 70.9838 13.312 71.6728 13.4925 72.3618C13.6731 73.0515 13.8671 73.7358 14.0746 74.4147C14.8069 76.8113 13.897 79.4614 11.7137 80.6914L9.59904 81.8828ZM5.49067 53.9698C2.54491 53.9698 0.220909 51.4301 0.753466 48.5329C1.00775 47.1495 1.30936 45.7709 1.65829 44.397C2.01805 42.9804 2.43818 41.589 2.91867 40.2228C3.88009 37.489 7.11218 36.4977 9.62827 37.9355L11.7501 39.1479C13.9159 40.3855 14.8126 43.0237 14.0824 45.4089C13.872 46.0962 13.6754 46.7891 13.4925 47.4874C13.3032 48.21 13.1287 48.9385 12.9689 49.6728C12.4373 52.116 10.347 53.9698 7.8466 53.9698H5.49067ZM27.6548 104.21C26.1785 106.831 22.7255 107.575 20.4765 105.578C19.3916 104.615 18.345 103.618 17.3367 102.588C16.3196 101.549 15.3317 100.475 14.373 99.3682C12.4122 97.1035 13.1417 93.6678 15.7425 92.1816L17.6419 91.0962C19.8023 89.8617 22.5223 90.423 24.199 92.2614C24.741 92.8556 25.2927 93.4334 25.8543 93.995C26.422 94.5627 27.0064 95.1204 27.6075 95.6681C29.4382 97.3362 30.0047 100.039 28.789 102.197L27.6548 104.21ZM24.3179 27.7532C22.666 29.527 20.0193 30.0378 17.9074 28.848L15.7896 27.6548C13.1691 26.1785 12.4246 22.7263 14.4078 20.4649C15.3556 19.3842 16.3319 18.3415 17.3367 17.3367C18.3415 16.3319 19.3842 15.3556 20.4649 14.4078C22.7263 12.4246 26.1785 13.1691 27.6548 15.7896L28.848 17.9074C30.0378 20.0193 29.527 22.666 27.7532 24.3179C27.1603 24.8701 26.5776 25.4325 26.005 26.005C25.4325 26.5776 24.8701 27.1603 24.3179 27.7532ZM53.9698 114.509C53.9698 117.455 51.4301 119.779 48.5329 119.247C47.1495 118.992 45.7709 118.691 44.397 118.342C42.9804 117.982 41.589 117.562 40.2228 117.081C37.489 116.12 36.4977 112.888 37.9355 110.372L39.1479 108.25C40.3855 106.084 43.0237 105.187 45.4089 105.918C46.0963 106.128 46.7891 106.325 47.4874 106.508C48.21 106.697 48.9385 106.871 49.6728 107.031C52.116 107.563 53.9698 109.653 53.9698 112.153V114.509ZM45.4089 14.0824C43.0237 14.8126 40.3855 13.9159 39.1479 11.7501L37.9355 9.62827C36.4977 7.11219 37.489 3.88009 40.2228 2.91867C41.589 2.43818 42.9804 2.01805 44.397 1.65829C45.7709 1.30936 47.1495 1.00775 48.5329 0.753466C51.4301 0.220909 53.9698 2.54491 53.9698 5.49067V7.8466C53.9698 10.347 52.116 12.4373 49.6728 12.9689C48.9385 13.1287 48.21 13.3032 47.4874 13.4925C46.7891 13.6754 46.0962 13.872 45.4089 14.0824ZM71.4671 119.247C68.5699 119.779 66.0302 117.455 66.0302 114.509V112.153C66.0302 109.653 67.884 107.563 70.3272 107.031C71.0615 106.871 71.79 106.697 72.5126 106.508C73.2109 106.325 73.9038 106.128 74.5911 105.918C76.9763 105.187 79.6145 106.084 80.8521 108.25L82.0645 110.372C83.5023 112.888 82.511 116.12 79.7772 117.081C78.411 117.562 77.0196 117.982 75.603 118.342C74.2291 118.691 72.8505 118.992 71.4671 119.247ZM80.8521 11.7501C79.6145 13.9159 76.9763 14.8126 74.5911 14.0824C73.9038 13.872 73.2109 13.6754 72.5126 13.4925C71.79 13.3032 71.0615 13.1287 70.3272 12.9689C67.884 12.4373 66.0302 10.347 66.0302 7.8466V5.49067C66.0302 2.54491 68.5699 0.220909 71.4671 0.753465C72.8505 1.00775 74.2291 1.30936 75.603 1.65829C77.0196 2.01805 78.411 2.43818 79.7772 2.91867C82.511 3.88009 83.5023 7.11218 82.0645 9.62827L80.8521 11.7501ZM99.477 105.741C97.2428 107.681 93.8649 106.908 92.4124 104.33L91.152 102.093C89.9622 99.9807 90.473 97.3341 92.2468 95.6821C92.8397 95.1299 93.4224 94.5675 93.995 93.995C94.5675 93.4224 95.1299 92.8397 95.6821 92.2468C97.3341 90.473 99.9807 89.9622 102.093 91.152L104.21 92.3452C106.831 93.8215 107.574 97.2722 105.604 99.5451C104.653 100.643 103.672 101.708 102.663 102.739C101.641 103.784 100.578 104.784 99.477 105.741ZM102.12 28.7506C100.001 29.9917 97.3085 29.4959 95.633 27.7006C95.0966 27.1258 94.5506 26.5606 93.995 26.005C93.4224 25.4325 92.8397 24.8701 92.2468 24.3179C90.473 22.666 89.9622 20.0193 91.152 17.9074L92.4124 15.6702C93.8649 13.0921 97.242 12.3191 99.4882 14.2453C100.586 15.1864 101.644 16.1666 102.663 17.1859C103.704 18.2269 104.705 19.3087 105.664 20.4312C107.565 22.6552 106.83 25.992 104.305 27.4706L102.12 28.7506ZM112.153 53.9698C109.653 53.9698 107.563 52.116 107.031 49.6728C106.871 48.9385 106.697 48.21 106.508 47.4874C106.321 46.7739 106.119 46.0662 105.904 45.3642C105.178 42.9991 106.051 40.3817 108.186 39.1313L110.155 37.9784C112.744 36.4618 116.092 37.549 117.051 40.3921C117.497 41.7134 117.902 43.0483 118.266 44.397C118.637 45.7721 118.956 47.152 119.223 48.5366C119.78 51.4292 117.455 53.9698 114.509 53.9698H112.153ZM117.081 79.7772C116.12 82.511 112.888 83.5023 110.372 82.0645L108.25 80.8521C106.084 79.6145 105.187 76.9763 105.918 74.5911C106.128 73.9038 106.325 73.2109 106.508 72.5126C106.697 71.79 106.871 71.0615 107.031 70.3272C107.563 67.884 109.653 66.0302 112.153 66.0302H114.509C117.455 66.0302 119.779 68.5699 119.247 71.4671C118.992 72.8505 118.691 74.2291 118.342 75.603C117.982 77.0196 117.562 78.411 117.081 79.7772Z" fill="white"/>
</svg>
