<svg width="61" height="63" viewBox="0 0 61 63" fill="none" xmlns="http://www.w3.org/2000/svg">
<path d="M27.45 60.7696C27.45 61.9601 26.4144 62.8928 25.243 62.6804C22.2084 62.1302 19.3476 61.1419 16.6606 59.7155C13.331 57.9479 10.4335 55.6526 7.96812 52.8298C5.50271 50.0069 3.55833 46.7751 2.135 43.1344C0.711667 39.4937 0 35.6156 0 31.5C0 26.6985 0.927708 22.2663 2.78312 18.2035C3.89225 15.7749 5.24205 13.5536 6.83254 11.5398C7.96652 10.1039 7.01408 7.75628 5.18445 7.75628H5.05C3.94543 7.75628 3.05 6.86085 3.05 5.75628V3.42462C3.05 2.32005 3.94543 1.42462 5.05 1.42462H19.35C20.4546 1.42462 21.35 2.32005 21.35 3.42462V18.4196C21.35 19.5242 20.4546 20.4196 19.35 20.4196H17.25C16.1454 20.4196 15.25 19.5242 15.25 18.4196V16.0531C15.25 14.3591 13.3197 13.4917 12.2194 14.7797C10.7948 16.4471 9.5811 18.3139 8.57812 20.38C6.92604 23.7833 6.1 27.4899 6.1 31.5C6.1 37.9899 8.14604 43.5961 12.2381 48.3185C15.9335 52.583 20.4268 55.2447 25.7182 56.3036C26.7029 56.5006 27.45 57.3403 27.45 58.3446V60.7696ZM27.5983 44.5634C26.8101 45.3816 25.4994 45.3796 24.7136 44.5591L14.5963 33.9955C13.854 33.2204 13.8558 31.9974 14.6004 31.2245L16.0972 29.6709C16.8838 28.8544 18.1912 28.8544 18.9778 29.6709L24.7134 35.6243C25.5001 36.4408 26.8074 36.4408 27.5941 35.6243L42.0094 20.6616C42.8008 19.84 44.1181 19.8459 44.9022 20.6744L46.4196 22.2775C47.1543 23.0537 47.1489 24.2703 46.4074 25.04L27.5983 44.5634ZM41.65 61.5754C40.5454 61.5754 39.65 60.68 39.65 59.5754V44.5804C39.65 43.4758 40.5454 42.5804 41.65 42.5804H43.75C44.8546 42.5804 45.75 43.4758 45.75 44.5804V46.8849C45.75 48.5893 47.7005 49.4539 48.801 48.1524C50.2167 46.478 51.4237 44.6207 52.4219 42.5804C54.074 39.2035 54.9 35.5101 54.9 31.5C54.9 25.01 52.854 19.4039 48.7619 14.6815C45.0665 10.417 40.5732 7.75531 35.2818 6.69643C34.2971 6.49936 33.55 5.65971 33.55 4.65543V2.21533C33.55 1.03017 34.5767 0.0990724 35.7447 0.299962C42.5165 1.46466 48.2916 4.74156 53.07 10.1307C58.3567 16.093 61 23.2161 61 31.5C61 36.3015 60.0723 40.7337 58.2169 44.7965C57.1077 47.2251 55.7579 49.4464 54.1675 51.4602C53.0335 52.8961 53.9859 55.2437 55.8156 55.2437H55.95C57.0546 55.2437 57.95 56.1392 57.95 57.2437V59.5754C57.95 60.68 57.0546 61.5754 55.95 61.5754H41.65Z" fill="white"/>
</svg>
