<svg width="24" height="24" viewBox="0 0 24 24" fill="none" xmlns="http://www.w3.org/2000/svg">
<mask id="mask0_652_202" style="mask-type:alpha" maskUnits="userSpaceOnUse" x="0" y="0" width="24" height="24">
<rect width="24" height="24" rx="1" fill="#D9D9D9"/>
</mask>
<g mask="url(#mask0_652_202)">
<path d="M23.2752 8.82524C23.0666 9.28383 22.4151 9.28383 22.2065 8.82524V8.82524C22.1477 8.69615 22.0442 8.59268 21.9151 8.53403V8.53403C21.4565 8.32571 21.4565 7.67429 21.9151 7.46597V7.46597C22.0442 7.40732 22.1477 7.30385 22.2065 7.17476V7.17476C22.4151 6.71617 23.0666 6.71617 23.2752 7.17476V7.17476C23.3339 7.30385 23.4374 7.40732 23.5665 7.46597V7.46597C24.0251 7.67429 24.0251 8.32571 23.5665 8.53403V8.53403C23.4374 8.59268 23.3339 8.69615 23.2752 8.82524V8.82524ZM20.5513 4.24773C20.2305 4.9395 19.2469 4.9395 18.9261 4.24773V4.24773C18.837 4.05552 18.6825 3.90114 18.4903 3.8121V3.8121C17.7985 3.49172 17.7985 2.50828 18.4903 2.1879V2.1879C18.6825 2.09886 18.837 1.94448 18.9261 1.75227V1.75227C19.2469 1.0605 20.2305 1.0605 20.5513 1.75227V1.75227C20.6405 1.94448 20.7949 2.09886 20.9872 2.1879V2.1879C21.679 2.50828 21.679 3.49172 20.9872 3.8121V3.8121C20.7949 3.90114 20.6405 4.05552 20.5513 4.24773V4.24773ZM9.73177 22C9.18139 22 8.7104 21.8043 8.31879 21.413C8.17762 21.2719 8.06186 21.1206 7.97149 20.9591C7.70185 20.4771 8.1781 20 8.73038 20H10.7332C11.2854 20 11.7617 20.477 11.4924 20.9592C11.4022 21.1207 11.2867 21.272 11.1458 21.413C10.7535 21.8043 10.2822 22 9.73177 22ZM6.729 19C6.17671 19 5.72899 18.5523 5.72899 18V18C5.72899 17.4477 6.17671 17 6.72899 17H12.7346C13.2868 17 13.7346 17.4477 13.7346 18V18C13.7346 18.5523 13.2868 19 12.7346 19H6.729ZM6.25369 16C6.074 16 5.89682 15.9528 5.74546 15.8559C4.70411 15.1897 3.86904 14.321 3.24027 13.25C2.56446 12.1 2.22656 10.85 2.22656 9.5C2.22656 7.41667 2.9564 5.646 4.41608 4.188C5.8751 2.72933 7.64699 2 9.73177 2C11.8166 2 13.5885 2.72933 15.0475 4.188C16.5071 5.646 17.237 7.41667 17.237 9.5C17.237 10.85 16.8994 12.1 16.2243 13.25C15.5949 14.321 14.7595 15.1897 13.7181 15.8559C13.5667 15.9528 13.3896 16 13.2099 16H6.25369Z" fill="white"/>
</g>
</svg>
