<svg width="35" height="35" viewBox="0 0 35 35" fill="none" xmlns="http://www.w3.org/2000/svg">
<path d="M33.075 0H1.925C1.41446 0 0.924827 0.202812 0.56382 0.56382C0.202812 0.924827 0 1.41446 0 1.925V33.075C0 33.5855 0.202812 34.0752 0.56382 34.4362C0.924827 34.7972 1.41446 35 1.925 35H18.69V21.4375H14.14V16.1875H18.69V12.25C18.5957 11.3256 18.7049 10.3917 19.0098 9.51394C19.3146 8.63616 19.8078 7.8357 20.4548 7.16872C21.1018 6.50173 21.8869 5.98437 22.7549 5.65292C23.623 5.32146 24.5531 5.18394 25.48 5.25C26.8421 5.24162 28.2035 5.31173 29.5575 5.46V10.185H26.775C24.57 10.185 24.15 11.235 24.15 12.7575V16.135H29.4L28.7175 21.385H24.15V35H33.075C33.3278 35 33.5781 34.9502 33.8117 34.8535C34.0452 34.7567 34.2574 34.6149 34.4362 34.4362C34.6149 34.2574 34.7567 34.0452 34.8535 33.8117C34.9502 33.5781 35 33.3278 35 33.075V1.925C35 1.67221 34.9502 1.42189 34.8535 1.18833C34.7567 0.954783 34.6149 0.742572 34.4362 0.56382C34.2574 0.385067 34.0452 0.243272 33.8117 0.146532C33.5781 0.0497918 33.3278 0 33.075 0Z" fill="white"/>
</svg>
